<svg width="65" height="64" viewBox="0 0 65 64" fill="none" xmlns="http://www.w3.org/2000/svg">
<rect x="0.5" width="64" height="64" rx="16" fill="#A3E635"/>
<path d="M28.0733 42.24C26.2387 42.08 24.3773 42 22.5 42H20.5C17.3174 42 14.2652 40.7357 12.0147 38.4853C9.76428 36.2348 8.5 33.1826 8.5 30C8.5 26.8174 9.76428 23.7652 12.0147 21.5147C14.2652 19.2643 17.3174 18 20.5 18H22.5C24.3773 18 26.2387 17.92 28.0733 17.76M28.0733 42.24C28.748 44.8053 29.6307 47.2853 30.7 49.6613C31.3587 51.128 30.86 52.888 29.4653 53.6907L27.7133 54.704C26.244 55.552 24.3533 55.016 23.6413 53.4747C21.9514 49.8188 20.6639 45.9901 19.8013 42.056M28.0733 42.24C27.0253 38.2445 26.4965 34.1306 26.5 30C26.5 25.7707 27.0467 21.6693 28.0733 17.76M28.0733 42.24C36.2907 42.9443 44.2926 45.2403 51.6333 49M28.0733 17.76C36.2907 17.0558 44.2927 14.7598 51.6333 11M51.6333 49C51.3187 50.0133 50.98 51.0107 50.62 52M51.6333 49C53.084 44.3242 53.9913 39.4968 54.3373 34.6133M51.6333 11C51.3206 9.99171 50.9827 8.99139 50.62 8M51.6333 11C53.084 15.6758 53.9913 20.5032 54.3373 25.3867M54.3373 25.3867C55.6573 26.488 56.5 28.1467 56.5 30C56.5 31.8533 55.6573 33.512 54.3373 34.6133M54.3373 25.3867C54.5561 28.4583 54.5561 31.5417 54.3373 34.6133" stroke="#171717" stroke-width="4.5" stroke-linecap="round" stroke-linejoin="round"/>
</svg>
